<?xml version="1.0" encoding="utf-8"?>
<!-- Generator: Adobe Illustrator 16.0.0, SVG Export Plug-In . SVG Version: 6.00 Build 0)  -->
<!DOCTYPE svg PUBLIC "-//W3C//DTD SVG 1.1//EN" "http://www.w3.org/Graphics/SVG/1.1/DTD/svg11.dtd">
<svg version="1.1" id="Layer_1" xmlns="http://www.w3.org/2000/svg" xmlns:xlink="http://www.w3.org/1999/xlink" x="0px" y="0px"
	 width="500px" height="500px" viewBox="0 0 500 500" enable-background="new 0 0 500 500" xml:space="preserve">
<circle fill="#E4F4F7" stroke="#1B488D" stroke-width="10" stroke-miterlimit="10" cx="250.001" cy="249.493" r="223.319"/>
<path fill="#B4E2E7" d="M280.391,357.58l-103.54,5.11c0,0-18.641,44.586,0,95.177c0,0,56.523,35.547,139.201,4.236
	c82.681-31.311,15.579-3.861,15.579-3.861S336.305,343.037,280.391,357.58z"/>
<g>
	<path fill="#B4E2E7" d="M368.139,177.776c0,0,5.37,16.103,0,53.674c0,0-1.67,8.587,2.386,31.131c0,0,7.277,62.263-68.941,78.365
		c0,0-97.686,19.323-118.083-75.146c0,0-20.397-8.588-20.397-25.764c0,0,7.515-12.882,15.028-8.587
		c0,0-18.373-135.261,72.937-145.997C251.067,85.454,357.406,61.838,368.139,177.776z"/>
	<rect x="243.928" y="326.661" fill="#B4E2E7" width="51.527" height="38.086"/>
	<path fill="#95D1F2" d="M363.488,127.507"/>
	<g>
		<path fill="#43C6EA" d="M183.635,270.944c0,0,21.068,52.023,59.882,57.729c0,0,12.56,59.359-25.117,69.634l-89.043-63.681
			l10.274-50.477L183.635,270.944z"/>
		<path fill="#2298D5" d="M318.864,94.647c-7.782,12.763-14.719,26.928-23.209,39.118c-6.038,8.67-12.8,6.566-22.777,5.885
			c-34.807-2.378-71.453,12.571-69.317,53.172c0.416,7.9,5.386,17.03,6.388,25.267c1.511,12.416,0.129,23.362-7.287,33.619
			c-12.129,16.777-34.762,26.369-37.135,49.139c-2.763,26.498,29.084,37.23,42.753,54.205c9.919,12.319,17.035,32.325,8.6,47.244
			c-7.055,12.479-24.254,15.012-37.288,15.419c0,0-22.833-2.282-27.402-29.681c0,0-65.068,19.408-74.2-38.814
			c0,0-21.691-69.638,75.346-119.867c-1.536,0.795-13.913-55.501-14.269-58.677c-5.292-46.969,27.483-83.811,70.415-97.729
			c12.807-4.151,27.547-7.723,41.024-8.45C277.628,63.028,302.167,72.868,318.864,94.647z"/>
		<path fill="#43C6EA" d="M286.295,133.47c0.02-0.266,0.018-0.548-0.003-0.853c-0.94-13.162-38.51-24.62-48.671-26.635
			c-26.333-5.224-53.415,3.942-74.016,20.629c-0.087,0.069-81.608,66.118-42.525,123.229c0,0,79.267-38.16,76.313-72.701
			c-0.889-10.386-6.324-18.606-4.534-29.891c2.265-14.282,13.856-22.407,27.484-24.888c13.465-2.45,24.39,3.035,36.49,7.959
			C260.87,131.96,285.648,142.967,286.295,133.47z"/>
	</g>
	<path fill="#43C6EA" d="M323.367,94.096c-10.123,16-20.327,31.951-30.496,47.921c3.001-4.713,20.836,6.232,24.511,8.35
		c9.141,5.261,16.617,11.737,20.562,21.779c6.3,16.042,5.753,41.357,4.739,58.4c-0.93,15.667-4.825,30.877-12.196,44.766
		c-10.371,19.548-27.091,38.369-46.642,49.16c-5.514,3.044-12.437,6.293-18.866,6.673c-3.496,0.205,1.452,39.492,1.934,41.892
		c9.881,49.276,69.834,41.86,97.968,14.1c30.808-30.403,18.646-69.965,14.785-108.198c-1.099-10.85,1.176-21.665,2.804-32.425
		c3.307-21.838,15.436-41.478,17.049-63.672c1.512-20.833-4.737-43.882-16.221-61.284c-5.678-8.605-12.917-16.136-22.225-20.792
		C356.541,98.5,326.581,89.05,323.367,94.096z"/>
	<path fill="#B4E2E7" d="M342.32,235.065c0,0,13.957-10.636,13.957,5.966c0,0-0.358,20.554-19.503,19.785"/>
</g>
<path fill="#1A488D" d="M277.153,233.558c0,0,11.494-20.743,41.709-7.056l7.752-5.366l-8.286,16.486
	C318.33,237.622,300.418,215.94,277.153,233.558z"/>
<path fill="#1A488D" d="M239.876,231.947c0,0-11.494-20.743-41.711-7.056l-7.751-5.366l8.286,16.486
	C198.699,236.012,216.612,214.33,239.876,231.947z"/>
<circle fill="none" stroke="#1B488D" stroke-width="10" stroke-miterlimit="10" cx="250.001" cy="248.319" r="223.319"/>
<path fill="#28377A" d="M210.551,217.111"/>
<path fill="#1A488D" d="M280.373,282.594c0,0-26.086,16.102-44.54,0C235.833,282.594,258.112,310.504,280.373,282.594z"/>
<path fill="#0E53A2" d="M269.691,382.525c0,0-12.778,21.975-31.152,0c0,0-8.419,14.754-19.815,15.782
	c0,0-3.363,15.149-22.273,17.348c0,0-8.307,27.157,1.942,40.845c10.25,13.688,92.67,16.103,109.576,0c0,0,7.246-34.558,0-47.471
	C307.969,409.029,280.626,406.403,269.691,382.525z"/>
</svg>
