<?xml version="1.0" encoding="utf-8"?>
<!-- Generator: Adobe Illustrator 16.0.0, SVG Export Plug-In . SVG Version: 6.00 Build 0)  -->
<!DOCTYPE svg PUBLIC "-//W3C//DTD SVG 1.1//EN" "http://www.w3.org/Graphics/SVG/1.1/DTD/svg11.dtd">
<svg version="1.1" id="Layer_1" xmlns="http://www.w3.org/2000/svg" xmlns:xlink="http://www.w3.org/1999/xlink" x="0px" y="0px"
	 width="500px" height="500px" viewBox="0 0 500 500" enable-background="new 0 0 500 500" xml:space="preserve">
<g>
	<circle fill="#E4F4F7" cx="250.334" cy="249.899" r="250"/>
</g>
<circle fill="#0E53A2" cx="250.334" cy="249.899" r="84.258"/>
<path fill="#F7B917" d="M283.056,96.315c0,4.239-3.437,7.675-7.676,7.675h-50.093c-4.239,0-7.675-3.437-7.675-7.675V64.071
	c0-4.239,3.437-7.675,7.675-7.675h50.093c4.239,0,7.676,3.437,7.676,7.675V96.315z"/>
<path fill="#43C6EA" d="M209.883,167.371c12.207-5.994,25.934-9.365,40.45-9.365c14.676,0,28.543,3.446,40.851,9.564
	c-3.417-5.693-6.914-11.855-10.171-18.17c-13.023-25.253-9.573-36.227-9.573-36.227l-42.214-0.001c0,0,2.588,11.295-9.574,36.229
	C216.624,155.611,213.247,161.711,209.883,167.371z"/>
<path fill="#F7B917" d="M217.612,403.48c0-4.236,3.436-7.674,7.675-7.674h50.092c4.239,0,7.676,3.438,7.676,7.674v32.246
	c0,4.238-3.437,7.676-7.676,7.676h-50.092c-4.239,0-7.675-3.438-7.675-7.676V403.48z"/>
<path fill="#43C6EA" d="M290.784,332.427c-12.207,5.994-25.934,9.363-40.451,9.363c-14.676,0-28.544-3.444-40.851-9.562
	c3.417,5.691,6.915,11.855,10.17,18.169c13.023,25.253,9.573,36.227,9.573,36.227l42.214,0.002c0,0-2.587-11.295,9.574-36.229
	C284.043,344.186,287.421,338.086,290.784,332.427z"/>
<g>
	<circle fill="#E4F4F7" cx="250.534" cy="250.039" r="52.957"/>
	<path fill="#1B488D" d="M250.534,304.904c-30.252,0-54.865-24.612-54.865-54.866c0-30.253,24.613-54.865,54.865-54.865
		s54.866,24.612,54.866,54.865C305.399,280.292,280.786,304.904,250.534,304.904z M250.534,198.992
		c-28.147,0-51.047,22.899-51.047,51.047s22.899,51.046,51.047,51.046c28.148,0,51.047-22.898,51.047-51.046
		S278.682,198.992,250.534,198.992z"/>
</g>
<g>
	<path fill="#B4E2E7" d="M257.74,275.668l-24.553,1.213c0,0-4.42,10.573,0,22.57c0,0,13.404,8.43,33.009,1.004
		c19.606-7.424,3.695-0.916,3.695-0.916S270.999,272.22,257.74,275.668z"/>
</g>
<g>
	<g>
		<path fill="#B4E2E7" d="M278.549,233.032c0,0,1.272,3.818,0,12.728c0,0-0.396,2.037,0.565,7.381c0,0,1.726,14.765-16.349,18.584
			c0,0-23.164,4.582-28.001-17.82c0,0-4.837-2.036-4.837-6.108c0,0,1.782-3.055,3.563-2.037c0,0-4.356-32.075,17.296-34.621
			C250.787,211.14,276.003,205.54,278.549,233.032z"/>
	</g>
	<g>
		<rect x="249.094" y="268.337" fill="#B4E2E7" width="12.219" height="9.031"/>
	</g>
	<g>
		<path fill="#95D1F2" d="M277.445,221.111"/>
	</g>
	<g>
		<g>
			<path fill="#43C6EA" d="M234.796,255.126c0,0,4.996,12.335,14.201,13.688c0,0,2.978,14.076-5.957,16.514l-21.115-15.102
				l2.437-11.97L234.796,255.126z"/>
		</g>
		<g>
			<path fill="#2298D5" d="M266.864,213.319c-1.847,3.027-3.49,6.386-5.504,9.276c-1.431,2.056-3.037,1.557-5.402,1.396
				c-8.253-0.564-16.943,2.981-16.437,12.608c0.099,1.874,1.277,4.039,1.515,5.991c0.358,2.945,0.03,5.54-1.728,7.972
				c-2.876,3.98-8.243,6.253-8.807,11.652c-0.655,6.284,6.897,8.83,10.138,12.854c2.353,2.922,4.04,7.666,2.04,11.205
				c-1.673,2.96-5.751,3.56-8.842,3.655c0,0-5.415-0.539-6.499-7.038c0,0-15.43,4.602-17.595-9.204c0,0-5.143-16.513,17.867-28.423
				c-0.364,0.188-3.299-13.162-3.383-13.915c-1.254-11.138,6.517-19.874,16.698-23.174c3.037-0.984,6.531-1.832,9.728-2.005
				C257.084,205.822,262.904,208.155,266.864,213.319z"/>
		</g>
		<g>
			<path fill="#43C6EA" d="M259.14,222.526c0.006-0.063,0.006-0.13,0-0.202c-0.224-3.121-9.132-5.838-11.542-6.316
				c-6.245-1.239-12.666,0.935-17.552,4.892c-0.021,0.017-19.352,15.679-10.084,29.221c0,0,18.797-9.048,18.097-17.24
				c-0.21-2.462-1.5-4.412-1.075-7.087c0.537-3.387,3.286-5.313,6.518-5.902c3.192-0.581,5.783,0.719,8.653,1.887
				C253.111,222.167,258.987,224.778,259.14,222.526z"/>
		</g>
	</g>
	<g>
		<path fill="#43C6EA" d="M267.932,213.188c-2.4,3.794-4.82,7.577-7.231,11.364c0.711-1.118,4.939,1.478,5.812,1.979
			c2.168,1.248,3.94,2.784,4.875,5.165c1.494,3.804,1.364,9.807,1.125,13.848c-0.221,3.716-1.146,7.322-2.894,10.615
			c-2.458,4.637-6.424,9.099-11.06,11.658c-1.308,0.722-2.949,1.492-4.475,1.583c-0.829,0.049,0.346,9.364,0.459,9.934
			c2.343,11.685,16.561,9.927,23.231,3.344c7.306-7.21,4.421-16.593,3.506-25.657c-0.26-2.572,0.279-5.14,0.665-7.689
			c0.784-5.179,3.661-9.836,4.043-15.099c0.358-4.939-1.123-10.405-3.847-14.532c-1.347-2.041-3.062-3.826-5.27-4.93
			C275.799,214.233,268.693,211.992,267.932,213.188z"/>
	</g>
	<g>
		<path fill="#B4E2E7" d="M272.426,246.617c0,0,3.31-2.522,3.31,1.415c0,0-0.085,4.874-4.625,4.691"/>
	</g>
</g>
<g>
	<path fill="#1A488D" d="M256.973,246.26c0,0,2.726-4.919,9.892-1.673l1.837-1.272l-1.965,3.91
		C266.737,247.224,262.489,242.082,256.973,246.26z"/>
</g>
<g>
	<path fill="#1A488D" d="M248.132,245.878c0,0-2.725-4.919-9.89-1.674l-1.839-1.271l1.965,3.909
		C238.369,246.842,242.617,241.701,248.132,245.878z"/>
</g>
<g>
	<path fill="#28377A" d="M241.179,242.36"/>
</g>
<g>
	<path fill="#1A488D" d="M257.737,257.888c0,0-6.187,3.817-10.563,0C247.174,257.888,252.457,264.507,257.737,257.888z"/>
</g>
<g>
	<path fill="#0E53A2" d="M255.203,281.584c0,0-3.03,5.212-7.387,0c0,0-1.997,3.499-4.699,3.744c0,0-0.797,3.591-5.281,4.114
		c0,0-1.971,6.438,0.459,9.686c2.43,3.245,21.976,3.816,25.985,0c0,0,1.718-8.196,0-11.258
		C264.28,287.87,257.797,287.248,255.203,281.584z"/>
</g>
<g>
	<path fill="#0E53A2" d="M250.534,304.626c-30.252,0-54.865-24.612-54.865-54.866s24.613-54.866,54.865-54.866
		s54.866,24.612,54.866,54.866S280.786,304.626,250.534,304.626z M250.534,198.713c-28.147,0-51.047,22.9-51.047,51.047
		c0,28.148,22.899,51.048,51.047,51.048c28.148,0,51.047-22.9,51.047-51.048C301.581,221.613,278.682,198.713,250.534,198.713z"/>
</g>
<circle fill="#2298D5" cx="252.456" cy="182.877" r="9.658"/>
<circle fill="#43C6EA" cx="286.907" cy="193.499" r="7.104"/>
<circle fill="#F7B917" cx="308.258" cy="215.66" r="4.966"/>
</svg>
