<?xml version="1.0" encoding="utf-8"?>
<!-- Generator: Adobe Illustrator 16.0.0, SVG Export Plug-In . SVG Version: 6.00 Build 0)  -->
<!DOCTYPE svg PUBLIC "-//W3C//DTD SVG 1.1//EN" "http://www.w3.org/Graphics/SVG/1.1/DTD/svg11.dtd">
<svg version="1.1" id="Layer_1" xmlns="http://www.w3.org/2000/svg" xmlns:xlink="http://www.w3.org/1999/xlink" x="0px" y="0px"
	 width="500px" height="500px" viewBox="0 0 500 500" enable-background="new 0 0 500 500" xml:space="preserve">
<path display="none" fill="#0A51A3" d="M264.325,139.631l32.774-32.746h-91.333l32.561,32.561
	C245.548,146.67,257.216,146.74,264.325,139.631z"/>
<path display="none" fill="#0A51A3" d="M346.472,103.58h-37.809l-39.023,39.008c-5.236,5.25-12.145,7.871-19.062,7.871
	c-7.02,0-14.073-2.691-19.438-8.056l-38.823-38.823h-38.787L75,160.913l39.467,54.029l39.062-28.518V396.42h192.942V186.425
	l39.074,28.518L425,160.913L346.472,103.58z"/>
<g id="Your_Icon" display="none">
	<g display="inline">
		<path fill="#0A51A3" d="M247.882,105.545c-71.733,0-131.829,47.828-147.882,112.167l183.53,176.743
			C350.342,378.998,400,321.125,400,252.039C400,171.133,331.894,105.545,247.882,105.545z M284.857,391.82L101.326,215.082
			c11.436-2.646,23.37-4.084,35.65-4.084c84.015,0,152.121,65.586,152.121,146.499C289.097,369.314,287.6,380.811,284.857,391.82z"
			/>
	</g>
</g>
<g id="Layer_x0020_1" display="none">
	<path display="inline" fill="#0A51A3" d="M184.475,282.042h1.704v-32.357h-15.75v-71.64h135.818v34.458
		c12.733-11.307,20.762-27.798,20.762-46.167c0-34.098-27.645-61.737-61.74-61.737c-2.267,0-4.503,0.122-6.704,0.36v17.42h-7.879
		v12.347h41.51c7.729,0,14.052,6.326,14.052,14.051v5.429H170.429v-5.429c0-7.725,6.321-14.051,14.052-14.051h38.315v-12.347h-7.872
		V78.312h43.64v3.556c2.208-0.174,4.445-0.26,6.707-0.26c46.79,0,84.729,37.934,84.729,84.727c0,31.926-17.664,59.725-43.753,74.166
		v9.184h-15.751v32.357h1.273c7.961,0,14.478,6.514,14.478,14.472v110.699c0,7.962-6.517,14.475-14.478,14.475H184.477
		c-7.965,0-14.477-6.513-14.477-14.475V296.514c0-7.958,6.512-14.472,14.477-14.472H184.475z"/>
</g>
<path fill="#0A51A3" d="M394.989,288.788c0-12.241-21.101-24.131-39.903-30.454l0,0c-0.854-0.272-6.278-2.745-2.877-13.246h-0.066
	c8.827-9.21,15.555-24.064,15.555-38.7c0-22.467-14.7-34.259-31.798-34.259c-17.107,0-31.732,11.792-31.732,34.259
	c0,14.679,6.705,29.621,15.555,38.809c1.292,3.489,1.236,6.136,0.591,8.126c9.156,7.844,22.412,24.12,17.874,55.109
	c-4.464-14.101-11.081-26.865-19.372-36.523c-8.128-11.092-27.412-21.111-45.154-27.062c-1.062-0.339-7.723-3.39-3.545-16.319
	h-0.065c10.862-11.343,19.153-29.655,19.153-47.682c0-27.695-18.136-42.221-39.192-42.221c-21.079,0-39.116,14.526-39.116,42.221
	c0,18.093,8.269,36.491,19.165,47.835c4.266,11.375-3.348,15.586-4.944,16.177c-11.431,4.201-23.792,10.195-33.144,17.032
	c-0.493,0.35-0.952,0.775-1.433,1.137c-2.231,1.718-4.222,3.479-5.972,5.283c-1.017,1.018-2.024,2.057-2.998,3.15
	c-0.01,0.012-0.021,0.022-0.021,0.022c-8.456,9.691-15.193,22.664-19.733,36.972c-4.539-30.988,8.707-47.266,17.874-55.107
	c-0.657-1.991-0.7-4.638,0.59-8.128c8.838-9.178,15.555-24.13,15.555-38.81c0-22.467-14.625-34.259-31.732-34.259
	c-17.097,0-31.809,11.792-31.809,34.259c0,14.636,6.727,29.49,15.565,38.701h-0.066c3.402,10.5-2.023,12.962-2.876,13.246
	C126.112,264.668,105,276.569,105,288.788c0,3.183,0.011,25.913,0.011,29.106c0,16.134,53.806,43.48,145.207,43.48
	c91.414,0,144.782-27.323,144.782-43.48C395,314.712,394.989,291.981,394.989,288.788z"/>
</svg>
