<?xml version="1.0" encoding="utf-8"?>
<!-- Generator: Adobe Illustrator 16.0.0, SVG Export Plug-In . SVG Version: 6.00 Build 0)  -->
<!DOCTYPE svg PUBLIC "-//W3C//DTD SVG 1.1//EN" "http://www.w3.org/Graphics/SVG/1.1/DTD/svg11.dtd">
<svg version="1.1" id="Layer_1" xmlns="http://www.w3.org/2000/svg" xmlns:xlink="http://www.w3.org/1999/xlink" x="0px" y="0px"
	 width="500px" height="500px" viewBox="0 0 500 500" enable-background="new 0 0 500 500" xml:space="preserve">
<path display="none" fill="#0A51A3" d="M264.325,139.631l32.774-32.746h-91.333l32.561,32.561
	C245.548,146.67,257.216,146.74,264.325,139.631z"/>
<path display="none" fill="#0A51A3" d="M346.472,103.58h-37.809l-39.023,39.008c-5.236,5.25-12.145,7.871-19.062,7.871
	c-7.02,0-14.073-2.691-19.438-8.056l-38.823-38.823h-38.787L75,160.913l39.467,54.029l39.062-28.518V396.42h192.942V186.425
	l39.074,28.518L425,160.913L346.472,103.58z"/>
<g id="Your_Icon">
	<g>
		<path fill="#0A51A3" d="M247.882,105.545c-71.733,0-131.829,47.828-147.882,112.167l183.53,176.743
			C350.342,378.998,400,321.125,400,252.039C400,171.133,331.894,105.545,247.882,105.545z M284.857,391.82L101.326,215.082
			c11.436-2.646,23.37-4.084,35.65-4.084c84.015,0,152.121,65.586,152.121,146.499C289.097,369.314,287.6,380.811,284.857,391.82z"
			/>
	</g>
</g>
</svg>
